<svg xmlns="http://www.w3.org/2000/svg" viewBox="0 0 32 32">
  <path fill="#f5c542" d="M19.11 17.73c-.27-.14-1.6-.79-1.85-.88-.25-.09-.43-.14-.61.14-.18.27-.7.88-.86 1.06-.16.18-.32.2-.59.07-.27-.14-1.15-.42-2.19-1.35-.81-.72-1.36-1.61-1.52-1.88-.16-.27-.02-.42.12-.56.12-.12.27-.32.41-.48.14-.16.18-.27.27-.45.09-.18.05-.34-.02-.48-.07-.14-.61-1.48-.84-2.03-.22-.53-.44-.46-.61-.46h-.52c-.18 0-.48.07-.73.34-.25.27-.96.94-.96 2.3 0 1.36.99 2.68 1.13 2.86.14.18 1.95 2.98 4.73 4.18.66.28 1.18.45 1.58.58.66.21 1.26.18 1.74.11.53-.08 1.6-.65 1.82-1.28.23-.63.23-1.17.16-1.28-.07-.11-.25-.18-.52-.32z"></path>
  <path fill="#f5c542" d="M16 3C8.82 3 3 8.82 3 16c0 2.82.74 5.47 2.03 7.76L3 29l5.41-1.97A12.94 12.94 0 0 0 16 29c7.18 0 13-5.82 13-13S23.18 3 16 3zm0 23.58c-2.2 0-4.23-.65-5.94-1.76l-.43-.27-3.21 1.17 1.2-3.12-.28-.44A10.57 10.57 0 1 1 16 26.58z"></path>
</svg>
